<svg xmlns="http://www.w3.org/2000/svg" width="201" height="245.865" viewBox="0 0 201 245.865">
  <g id="グループ_1" data-name="グループ 1" transform="translate(-82 -47)">
    <path id="前面オブジェクトで型抜き_1" data-name="前面オブジェクトで型抜き 1" d="M100.5,256.865a286.643,286.643,0,0,1-36.9-2.3,180.078,180.078,0,0,1-32.191-6.912C10.86,240.949,0,231.388,0,220a79.68,79.68,0,0,1,3.313-22.746,83.031,83.031,0,0,1,9.373-20.568,90.813,90.813,0,0,1,14.586-17.64,99.333,99.333,0,0,1,18.952-13.962,147.48,147.48,0,0,0,15.188,11.6,139.239,139.239,0,0,0,15.107,8.792C86.122,170.258,94.863,173,100.5,173s14.378-2.742,23.982-7.522a139.245,139.245,0,0,0,15.107-8.792,147.489,147.489,0,0,0,15.188-11.6,99.332,99.332,0,0,1,18.952,13.962,90.814,90.814,0,0,1,14.586,17.64,83.032,83.032,0,0,1,9.373,20.568A79.682,79.682,0,0,1,201,220c0,11.389-10.86,20.95-31.406,27.649a180.079,180.079,0,0,1-32.191,6.912A286.643,286.643,0,0,1,100.5,256.865Z" transform="translate(82 36)" fill="#a0a0a0"/>
    <circle id="楕円形_1" data-name="楕円形 1" cx="68" cy="68" r="68" transform="translate(115 47)" fill="#a0a0a0"/>
  </g>
</svg>
