<svg xmlns="http://www.w3.org/2000/svg" width="119.74" height="36" viewBox="0 0 119.74 36">
  <g id="ロゴ白抜き" transform="translate(-16 -12)">
    <path id="パス_19" data-name="パス 19" d="M18.54-12.78a.52.52,0,0,0-.2-.4l-2.02-1.58a.664.664,0,0,0-.32-.1.516.516,0,0,0-.52.52.5.5,0,0,0,.2.42l2.04,1.58a.539.539,0,0,0,.3.1A.509.509,0,0,0,18.54-12.78Zm-2.52.84a.434.434,0,0,0-.16-.36l-1.8-1.88a.524.524,0,0,0-.38-.18.552.552,0,0,0-.52.56.422.422,0,0,0,.16.34l1.8,1.88a.5.5,0,0,0,.38.16A.529.529,0,0,0,16.02-11.94Zm.88,9.46a.58.58,0,0,0-.58-.58H6.04V-7.18l7.94-2.36a.548.548,0,0,0,.42-.52.569.569,0,0,0-.56-.6.554.554,0,0,0-.18.02L6.04-8.36V-12.1a.594.594,0,0,0-.58-.58.58.58,0,0,0-.58.58v9.62a.577.577,0,0,0,.58.56H16.32A.577.577,0,0,0,16.9-2.48ZM30.58-7.24a.554.554,0,0,0-.02-.18l-.84-2.6a.554.554,0,0,0-.5-.38.551.551,0,0,0-.54.54.554.554,0,0,0,.02.18l.84,2.58a.554.554,0,0,0,.5.38A.521.521,0,0,0,30.58-7.24Zm3.94-.6V-9.78a.534.534,0,0,0-.54-.52.534.534,0,0,0-.54.52v1.94c0,1.18-2.52,4.82-7.78,6.38a.568.568,0,0,0-.4.5.542.542,0,0,0,.54.56.44.44,0,0,0,.16-.02C31.38-2.06,34.52-5.92,34.52-7.84Zm-7.16.88a.547.547,0,0,0-.08-.28L25.74-9.76a.529.529,0,0,0-.46-.26.521.521,0,0,0-.52.54.547.547,0,0,0,.08.28l1.54,2.52a.521.521,0,0,0,.48.26A.517.517,0,0,0,27.36-6.96ZM55.54-5.04a.594.594,0,0,0-.58-.58c-.7,0-2.84-1.32-5.36-2.84L47.74-9.58v-3.86a.594.594,0,0,0-.58-.58.58.58,0,0,0-.58.58V-1.08a.58.58,0,0,0,.58.58.594.594,0,0,0,.58-.58V-8.2l1.24.74c3.3,1.96,4.98,3,5.98,3A.58.58,0,0,0,55.54-5.04Zm22.2-2.12a.577.577,0,0,0-.56-.58h-8v-3.22h5.36a.58.58,0,0,0,.58-.58.58.58,0,0,0-.58-.58H65.12a.58.58,0,0,0-.58.58.58.58,0,0,0,.58.58h2.9v3.22H62.66a.594.594,0,0,0-.58.58.594.594,0,0,0,.58.58h5.36V-1.7a.594.594,0,0,0,.58.58h6.64a.594.594,0,0,0,.58-.58.594.594,0,0,0-.58-.58H69.18v-4.3h8A.577.577,0,0,0,77.74-7.16Z" transform="translate(58 38)" fill="#fff"/>
    <g id="ロゴ" transform="translate(-43 -130)">
      <path id="前面オブジェクトで型抜き_1" data-name="前面オブジェクトで型抜き 1" d="M-385,2927a17.883,17.883,0,0,1-7.006-1.415,17.942,17.942,0,0,1-5.722-3.857,17.944,17.944,0,0,1-3.858-5.721A17.888,17.888,0,0,1-403,2909a17.888,17.888,0,0,1,1.415-7.007,17.944,17.944,0,0,1,3.858-5.721,17.942,17.942,0,0,1,5.722-3.857A17.883,17.883,0,0,1-385,2891a17.884,17.884,0,0,1,7.007,1.415,17.941,17.941,0,0,1,5.721,3.857,17.939,17.939,0,0,1,3.857,5.721A17.889,17.889,0,0,1-367,2909a17.889,17.889,0,0,1-1.414,7.007,17.939,17.939,0,0,1-3.857,5.721,17.942,17.942,0,0,1-5.721,3.857A17.884,17.884,0,0,1-385,2927Zm.074-26.229a8.312,8.312,0,0,0-8.3,8.3,8.312,8.312,0,0,0,8.3,8.3,8.312,8.312,0,0,0,8.3-8.3A8.312,8.312,0,0,0-384.926,2900.771Z" transform="translate(462 -2749)" fill="#fff"/>
      <path id="パス_20" data-name="パス 20" d="M11.124-7.668a.312.312,0,0,0-.12-.24L9.792-8.856a.4.4,0,0,0-.192-.06.31.31,0,0,0-.312.312.3.3,0,0,0,.12.252l1.224.948a.323.323,0,0,0,.18.06A.306.306,0,0,0,11.124-7.668Zm-1.512.5a.261.261,0,0,0-.1-.216L8.436-8.508a.314.314,0,0,0-.228-.108A.331.331,0,0,0,7.9-8.28a.253.253,0,0,0,.1.2l1.08,1.128a.3.3,0,0,0,.228.1A.318.318,0,0,0,9.612-7.164Zm.528,5.676a.348.348,0,0,0-.348-.348H3.624V-4.308L8.388-5.724a.329.329,0,0,0,.252-.312A.341.341,0,0,0,8.3-6.4a.332.332,0,0,0-.108.012L3.624-5.016V-7.26a.356.356,0,0,0-.348-.348.348.348,0,0,0-.348.348v5.772a.346.346,0,0,0,.348.336H9.792A.346.346,0,0,0,10.14-1.488Z" transform="translate(71 165)" fill="#fff"/>
    </g>
  </g>
</svg>
